<?xml version="1.0" encoding="UTF-8"?>
<svg width="433px" height="402px" viewBox="0 0 433 402" version="1.1" xmlns="http://www.w3.org/2000/svg" xmlns:xlink="http://www.w3.org/1999/xlink">
    <title>LogoVector</title>
    <defs>
        <linearGradient x1="76.2262818%" y1="7.45934826%" x2="23.6511094%" y2="92.5655852%" id="linearGradient-1">
            <stop stop-color="#00EAFF" offset="0%"></stop>
            <stop stop-color="#0080FF" offset="25.2530882%"></stop>
            <stop stop-color="#8000FF" offset="49.7394282%"></stop>
            <stop stop-color="#E619E6" offset="74.9912298%"></stop>
            <stop stop-color="#FF0000" offset="99.9136118%"></stop>
        </linearGradient>
    </defs>
    <g id="Page-1" stroke="none" stroke-width="1" fill="none" fill-rule="evenodd">
        <g id="Artboard" transform="translate(-182.000000, -149.000000)" fill="url(#linearGradient-1)" fill-rule="nonzero">
            <g id="LogoVector" transform="translate(182.000000, 149.000000)">
                <path d="M432.598765,223.951028 C432.598765,226.002407 432.123895,227.952504 431.22332,229.644848 L338.558363,390.145156 C334.628442,396.95198 327.365648,401.145156 319.505805,401.145156 L113.592961,401.145156 C105.733118,401.145156 98.470323,396.95198 94.540402,390.145156 L1.86679,229.629552 C0.968844,227.940022 0.5,225.999302 0.5,223.951028 C0.5,217.307901 5.885318,211.922583 12.528445,211.922583 L114.199342,211.922583 L139.965382,255.687949 L140.123755,255.949452 C143.56213,261.470142 150.796681,263.269462 156.433324,259.951035 L156.433324,259.951035 L156.725027,259.773687 C159.323961,258.142692 161.205446,255.576775 161.976025,252.597905 L161.976025,252.597905 L194.807505,125.677705 L222.998349,330.011885 L223.041062,330.296747 C224.082331,336.72482 230.072426,341.1783 236.557845,340.283548 L236.557845,340.283548 L236.85245,340.239203 C241.548041,339.473143 245.362876,336.004494 246.559058,331.380352 L246.559058,331.380352 L286.133013,178.39653 L302.381735,205.996566 L302.543066,206.262694 C304.735954,209.77701 308.59028,211.922583 312.747249,211.922583 L312.747249,211.922583 L420.57032,211.922583 L420.57032,211.922583 C427.213447,211.922583 432.598765,217.307901 432.598765,223.951028 Z M319.505805,0.493649 C327.365648,0.493649 334.628442,4.686825 338.558363,11.493649 L431.229106,172.001259 C432.125282,173.691832 432.598765,175.640838 432.598765,177.687777 C432.598765,184.330904 427.213447,189.716222 420.57032,189.716222 L318.566328,189.716222 L292.800288,145.950856 L292.62294,145.659153 C290.991945,143.060218 288.426028,141.178734 285.447158,140.408155 L285.447158,140.408155 L285.167463,140.339295 C278.826545,138.85703 272.429227,142.702682 270.789645,149.040901 L270.789645,149.040901 L237.95724,275.960175 L209.767321,71.62692 L209.722976,71.332314 C208.956916,66.636723 205.488267,62.821889 200.864125,61.625707 C194.432698,59.962014 187.870306,63.827026 186.206612,70.258453 L186.206612,70.258453 L146.631731,223.24135 L130.383935,195.64224 L130.222604,195.376112 C128.029716,191.861796 124.17539,189.716222 120.018421,189.716222 L120.018421,189.716222 L12.528445,189.716222 L12.528445,189.716222 C5.885318,189.716222 0.5,184.330904 0.5,177.687777 C0.5,175.65653 0.956256,173.735416 1.837658,172.056157 L94.540402,11.493649 C98.470323,4.686825 105.733118,0.493649 113.592961,0.493649 L319.505805,0.493649 Z" id="PulseChain-Logo-Shape"></path>
            </g>
        </g>
    </g>
</svg>